<svg version="1.2" xmlns="http://www.w3.org/2000/svg" viewBox="0 0 1000 1000" width="1000" height="1000">
	<title>4154988-ai</title>
	<style>
		.s0 { fill: #949ead } 
		.s1 { fill: #eae4e1 } 
		.s2 { fill: #9b867b } 
		.s3 { fill: #4b505e } 
	</style>
	<g id="BACKGROUND">
	</g>
	<g id="OBJECTS">
		<g id="&lt;Group&gt;">
			<g id="&lt;Group&gt;">
				<path id="&lt;Path&gt;" class="s0" d="m273.3 335c-71.7 0-129.6-57.9-129.6-129.5 0-71.6 57.9-129.5 129.6-129.5 71.6 0 129.5 57.9 129.5 129.5 0 71.6-57.9 129.5-129.5 129.5z"/>
				<g id="&lt;Group&gt;">
					<path id="&lt;Compound Path&gt;" fill-rule="evenodd" class="s1" d="m345.3 144.8v32.5c0 3.4-2.8 6.2-6.3 6.2h-9.7l-3.9 85c-0.1 2.2-1.9 4-4.2 4h-4.5c-2.2 0-4.1-1.8-4.2-4l-1.4-31.9h-75.7l-1.4 31.9c-0.1 2.2-2 4-4.2 4h-4.5c-2.2 0-4.1-1.8-4.2-4l-3.9-85h-9.7c-3.4 0-6.2-2.8-6.2-6.2v-32.5c0-3.4 2.8-6.2 6.2-6.2h131.5c3.5 0 6.3 2.8 6.3 6.2zm-111.8 38.7h-11.9l3.8 84.8 4.3-0.1zm77.3 48.7l-0.3-6.4h-74.6l-0.3 6.4zm-0.5-10.7l-1.8-38h-70.7l-1.8 38zm14.6-38h-12l3.9 84.7 4.2-0.1zm16-38.7c0-1.1-0.9-1.9-1.9-1.9h-131.5c-1.1 0-2 0.8-2 1.9v32.5c0 1 0.9 1.9 2 1.9h131.5c1 0 1.9-0.9 1.9-1.9z"/>
				</g>
			</g>
			<g id="&lt;Group&gt;">
				<path id="&lt;Path&gt;" class="s2" d="m725.2 335c-71.7 0-129.6-57.9-129.6-129.5 0-71.6 57.9-129.5 129.6-129.5 71.6 0 129.5 57.9 129.5 129.5 0 71.6-57.9 129.5-129.5 129.5z"/>
				<g id="&lt;Group&gt;">
					<path id="&lt;Compound Path&gt;" fill-rule="evenodd" class="s1" d="m794.4 127.1v139.1c0 3-2.4 5.4-5.4 5.4h-4.4l-1.7 14.6c-0.3 1.8-1.8 3.2-3.6 3.2h-6.6c-1.8 0-3.4-1.4-3.6-3.2l-1.8-14.6h-84.3l-1.7 14.6c-0.3 1.8-1.8 3.2-3.6 3.2h-6.6c-1.8 0-3.4-1.4-3.6-3.2l-1.7-14.6h-4.4c-3 0-5.5-2.4-5.5-5.4v-139.1c0-3 2.5-5.4 5.5-5.4h127.6c3 0 5.4 2.4 5.4 5.4zm-115.7 144.5h-8.6l1.6 13.4h5.4zm101.5 0h-8.5l1.6 13.5h5.3zm9.9-48.6h-129.9v43.2c0 0.6 0.5 1.1 1.1 1.1h127.7c0.6 0 1.1-0.5 1.1-1.1zm-129.9-4.3h129.9v-44.3h-129.9zm129.9-91.6c0-0.6-0.5-1.1-1.1-1.1h-127.7c-0.6 0-1.1 0.5-1.1 1.1v43.1h129.9z"/>
					<path id="&lt;Compound Path&gt;" class="s1" d="m686.9 152.3c-2.3 0-4.2-1.9-4.2-4.2 0-2.3 1.9-4.2 4.2-4.2 2.4 0 4.2 1.9 4.2 4.2 0 2.3-1.8 4.2-4.2 4.2z"/>
					<path id="&lt;Compound Path&gt;" class="s1" d="m763.5 152.3c-2.4 0-4.3-1.9-4.3-4.2 0-2.3 1.9-4.2 4.3-4.2 2.3 0 4.2 1.9 4.2 4.2 0 2.3-1.9 4.2-4.2 4.2z"/>
					<path id="&lt;Compound Path&gt;" class="s1" d="m686.9 200.9c-2.3 0-4.2-1.9-4.2-4.3 0-2.3 1.9-4.2 4.2-4.2 2.4 0 4.2 1.9 4.2 4.2 0 2.4-1.8 4.3-4.2 4.3z"/>
					<path id="&lt;Compound Path&gt;" class="s1" d="m763.5 200.9c-2.4 0-4.3-1.9-4.3-4.3 0-2.3 1.9-4.2 4.3-4.2 2.3 0 4.2 1.9 4.2 4.2 0 2.4-1.9 4.3-4.2 4.3z"/>
					<path id="&lt;Compound Path&gt;" class="s1" d="m686.9 249.4c-2.3 0-4.2-1.9-4.2-4.2 0-2.4 1.9-4.2 4.2-4.2 2.4 0 4.2 1.8 4.2 4.2 0 2.3-1.8 4.2-4.2 4.2z"/>
					<path id="&lt;Compound Path&gt;" class="s1" d="m763.5 249.4c-2.4 0-4.3-1.9-4.3-4.2 0-2.4 1.9-4.2 4.3-4.2 2.3 0 4.2 1.8 4.2 4.2 0 2.3-1.9 4.2-4.2 4.2z"/>
				</g>
			</g>
			<g id="&lt;Group&gt;">
				<path id="&lt;Path&gt;" class="s3" d="m499.2 335c-71.6 0-129.5-57.9-129.5-129.5 0-71.6 57.9-129.5 129.5-129.5 71.7 0 129.6 57.9 129.6 129.5 0 71.6-57.9 129.5-129.6 129.5z"/>
				<g id="&lt;Group&gt;">
					<path id="&lt;Compound Path&gt;" fill-rule="evenodd" class="s1" d="m543 199.7c0.4 1.3 0.2 2.7-0.7 3.8-0.8 1.1-2 1.7-3.4 1.7h-32v68.8l21.9 16c1 0.7 1.4 2 1.1 3.2-0.4 1.2-1.5 2-2.8 2h-55.8c-1.2 0-2.3-0.8-2.7-2-0.4-1.2 0-2.5 1-3.2l22-16v-68.8h-16.9v18.7c2.3 0.8 4 3.1 4 5.8 0 3.4-2.8 6.2-6.2 6.2-3.4 0-6.2-2.8-6.2-6.2 0-2.7 1.7-5 4.1-5.8v-18.7h-10.9c-1.3 0-2.6-0.6-3.4-1.7-0.8-1.1-1-2.5-0.6-3.8l25.2-80.2c0.7-2.2 2.7-3.7 5-3.7h27.1c2.3 0 4.2 1.5 4.9 3.7zm-40.4 76.5v-71h-6.7v71l-20.1 14.6h47zm36.3-75.3l-25.3-80.1c-0.1-0.4-0.4-0.6-0.8-0.6h-27.1c-0.4 0-0.7 0.2-0.9 0.6l-25.2 80.2z"/>
				</g>
			</g>
		</g>
		<path id="HomeWood" class="s3" aria-label="HomeWood"  d="m51 472v-81.4h21v31h31v-31h21v81.4h-21v-34.5h-31v34.5zm150.7-48.6q-6.4 0-9.9 4.7-3.4 4.6-3.4 13.4 0 8.8 3.4 13.5 3.5 4.6 9.9 4.6 6.4 0 9.8-4.6 3.4-4.7 3.4-13.5 0-8.8-3.4-13.4-3.4-4.7-9.8-4.7zm0-13.9q15.8 0 24.6 8.5 8.9 8.5 8.9 23.5 0 15.1-8.9 23.6-8.8 8.5-24.6 8.5-15.8 0-24.7-8.5-8.9-8.5-8.9-23.6 0-15 8.9-23.5 8.9-8.5 24.7-8.5zm133.4 11.6q3.7-5.7 8.8-8.6 5.1-3 11.2-3 10.5 0 16 6.4 5.6 6.5 5.6 18.9v37.2h-19.7v-31.8q0.1-0.8 0.1-1.5 0-0.8 0-2.2 0-6.5-1.9-9.4-1.9-2.9-6.1-2.9-5.6 0-8.7 4.6-3 4.5-3.1 13.2v30h-19.6v-31.8q0-10.2-1.8-13.1-1.7-2.9-6.2-2.9-5.6 0-8.7 4.6-3 4.6-3 13.2v30h-19.6v-61.1h19.6v9q3.6-5.2 8.2-7.8 4.7-2.6 10.3-2.6 6.4 0 11.2 3 4.9 3.1 7.4 8.6zm149.8 20.2v5.6h-45.7q0.8 6.8 5 10.3 4.3 3.4 11.9 3.4 6.2 0 12.6-1.8 6.5-1.9 13.3-5.6v15.1q-6.9 2.6-13.8 4-7 1.3-13.9 1.3-16.6 0-25.8-8.4-9.2-8.5-9.2-23.7 0-14.9 9-23.5 9.1-8.5 24.9-8.5 14.4 0 23 8.6 8.7 8.7 8.7 23.2zm-45.4-6.5h25.3q0-5.6-3.2-8.9-3.3-3.5-8.5-3.5-5.7 0-9.2 3.2-3.6 3.2-4.4 9.2zm102.5 37.2l-19.3-81.4h20.1l14.1 59.2 13.9-59.2h20.3l14 59.2 14-59.2h20l-19.2 81.4h-24.2l-14.8-61.9-14.6 61.9zm164-48.6q-6.5 0-9.9 4.7-3.4 4.6-3.4 13.4 0 8.8 3.4 13.5 3.4 4.6 9.9 4.6 6.4 0 9.8-4.6 3.4-4.7 3.4-13.5 0-8.8-3.4-13.4-3.4-4.7-9.8-4.7zm0-13.9q15.8 0 24.6 8.5 8.9 8.5 8.9 23.5 0 15.1-8.9 23.6-8.8 8.5-24.6 8.5-15.8 0-24.7-8.5-8.9-8.5-8.9-23.6 0-15 8.9-23.5 8.9-8.5 24.7-8.5zm105.8 13.9q-6.5 0-9.9 4.7-3.4 4.6-3.4 13.4 0 8.8 3.4 13.5 3.4 4.6 9.9 4.6 6.4 0 9.8-4.6 3.4-4.7 3.4-13.5 0-8.8-3.4-13.4-3.4-4.7-9.8-4.7zm0-13.9q15.8 0 24.6 8.5 8.9 8.5 8.9 23.5 0 15.1-8.9 23.6-8.8 8.5-24.6 8.5-15.8 0-24.7-8.5-8.9-8.5-8.9-23.6 0-15 8.9-23.5 8.9-8.5 24.7-8.5zm118.3 10.4v-32.8h19.6v84.9h-19.6v-8.8q-4 5.4-8.9 7.9-4.8 2.5-11.2 2.5-11.3 0-18.6-9-7.2-9-7.2-23.1 0-14.1 7.2-23 7.3-9 18.6-9 6.3 0 11.2 2.5 4.9 2.5 8.9 7.9zm-12.9 39.5q6.3 0 9.6-4.6 3.3-4.6 3.3-13.3 0-8.7-3.3-13.3-3.3-4.6-9.6-4.6-6.2 0-9.5 4.6-3.3 4.6-3.3 13.3 0 8.7 3.3 13.3 3.3 4.6 9.5 4.6z"/>
		<path id="HomeWood copy" class="s3" aria-label="Creations"  d="m227.7 576.1v13.3q-4.6 2.4-9.6 3.6-5 1.3-10.4 1.3-16.1 0-25.6-9.1-9.4-9-9.4-24.5 0-15.5 9.4-24.5 9.5-9.1 25.6-9.1 5.4 0 10.4 1.3 5 1.2 9.6 3.6v13.3q-4.6-3.1-9.1-4.6-4.6-1.5-9.5-1.5-9 0-14.1 5.7-5.1 5.8-5.1 15.8 0 10 5.1 15.7 5.1 5.8 14.1 5.8 4.9 0 9.5-1.5 4.5-1.5 9.1-4.6zm72.2-32.5l0.1 14.1q-2.1-1-4.1-1.4-2-0.5-4-0.5-6 0-9.3 3.9-3.2 3.8-3.2 10.9v22.4h-15.5v-48.5h15.5v7.9q3-4.7 6.9-6.9 3.9-2.2 9.3-2.2 0.8 0 1.7 0.1 0.9 0 2.6 0.2zm79.3 25v4.4h-36.3q0.6 5.5 4 8.2 3.4 2.7 9.4 2.7 4.9 0 10.1-1.4 5.1-1.5 10.5-4.4v12q-5.5 2-11 3.1-5.5 1.1-11 1.1-13.2 0-20.5-6.7-7.3-6.7-7.3-18.8 0-11.9 7.2-18.7 7.2-6.8 19.7-6.8 11.5 0 18.3 6.9 6.9 6.9 6.9 18.4zm-36.1-5.2h20.2q0-4.4-2.6-7.1-2.6-2.7-6.7-2.7-4.6 0-7.4 2.6-2.8 2.5-3.5 7.2zm100.8 7.8h-8.1q-4.8 0-7.3 1.6-2.4 1.7-2.4 4.9 0 2.9 1.9 4.6 2 1.6 5.5 1.6 4.4 0 7.4-3.1 3-3.1 3-7.9zm15.6-5.8v27.7h-15.6v-7.2q-3.1 4.4-7.1 6.4-3.9 2-9.4 2-7.6 0-12.3-4.3-4.7-4.5-4.7-11.5 0-8.5 5.9-12.5 5.9-4 18.4-4h9.2v-1.2q0-3.7-2.9-5.4-2.9-1.7-9.1-1.7-5 0-9.3 1-4.3 1-7.9 3v-11.9q4.9-1.2 10-1.8 5-0.6 10-0.6 13.2 0 19 5.2 5.8 5.1 5.8 16.8zm39-34.6h15.5v13.7h16v11.1h-16v20.6q0 3.4 1.3 4.6 1.4 1.2 5.4 1.2h7.9v11.1h-13.3q-9.2 0-13-3.8-3.8-3.9-3.8-13.1v-20.6h-7.8v-11.1h7.8zm64 62.4v-48.6h15.6v48.6zm0-54.8v-12.7h15.5v12.7zm76.6 16.1q-5.2 0-7.9 3.8-2.7 3.7-2.7 10.6 0 7 2.7 10.7 2.7 3.7 7.9 3.7 5.1 0 7.7-3.7 2.7-3.7 2.7-10.7 0-6.9-2.7-10.6-2.6-3.8-7.7-3.8zm0-11q12.5 0 19.5 6.7 7.1 6.8 7.1 18.7 0 12-7.1 18.8-7 6.7-19.5 6.7-12.6 0-19.7-6.7-7.1-6.8-7.1-18.8 0-11.9 7.1-18.7 7.1-6.7 19.7-6.7zm109.8 20.1v29.6h-15.7v-4.9-17.8q0-6.2-0.3-8.6-0.2-2.4-0.9-3.5-0.9-1.6-2.5-2.4-1.5-0.8-3.5-0.8-4.9 0-7.7 3.7-2.7 3.8-2.7 10.4v23.9h-15.6v-48.6h15.6v7.1q3.5-4.2 7.4-6.2 4-2 8.7-2 8.4 0 12.8 5.1 4.4 5.2 4.4 15zm75.3-17.5v11.8q-4.9-2.1-9.6-3.1-4.6-1-8.7-1-4.5 0-6.6 1.1-2.1 1.1-2.1 3.4 0 1.8 1.6 2.8 1.6 1 5.8 1.5l2.7 0.4q12 1.5 16.1 5 4.1 3.4 4.1 10.9 0 7.7-5.7 11.6-5.7 3.9-17.1 3.9-4.8 0-10-0.7-5.1-0.8-10.5-2.3v-11.8q4.6 2.2 9.5 3.4 4.9 1.1 9.9 1.1 4.6 0 6.9-1.3 2.3-1.2 2.3-3.7 0-2.1-1.6-3.1-1.6-1-6.3-1.6l-2.8-0.3q-10.3-1.3-14.5-4.8-4.1-3.5-4.1-10.7 0-7.7 5.2-11.4 5.3-3.7 16.3-3.7 4.2 0 9 0.6 4.7 0.7 10.2 2z"/>
	</g>
</svg>